<?xml version="1.0" encoding="UTF-8"?><svg id="Ebene_1" xmlns="http://www.w3.org/2000/svg" viewBox="0 0 386.8 96.86"><defs><style>.cls-1{fill:#58585a;}.cls-2{fill:#b0c81d;}</style></defs><path class="cls-2" d="m1.99,39.57c0-7.5,5.55-12.81,13.29-12.81,4.51,0,8.26,1.85,10.25,5.36l-3.46,2.23c-1.61-2.47-4.08-3.61-6.83-3.61-4.94,0-8.64,3.46-8.64,8.83s3.7,8.87,8.64,8.87c2.75,0,5.22-1.14,6.83-3.61l3.46,2.18c-1.99,3.51-5.74,5.41-10.25,5.41-7.73,0-13.29-5.36-13.29-12.86Z"/><path class="cls-2" d="m28.71,39.57c0-7.5,5.55-12.81,13.1-12.81s13.05,5.31,13.05,12.81-5.5,12.86-13.05,12.86-13.1-5.36-13.1-12.86Zm21.54,0c0-5.36-3.61-8.83-8.45-8.83s-8.49,3.46-8.49,8.83,3.65,8.87,8.49,8.87,8.45-3.51,8.45-8.87Z"/><path class="cls-2" d="m74.69,26.75v4.41c-.38-.05-.71-.05-1.04-.05-4.89,0-7.92,2.99-7.92,8.49v12.53h-4.56v-25.15h4.37v4.22c1.61-2.94,4.75-4.46,9.16-4.46Z"/><path class="cls-2" d="m102.68,41.09h-20.41c.57,4.41,4.13,7.36,9.11,7.36,2.94,0,5.41-1,7.26-3.04l2.51,2.94c-2.28,2.66-5.74,4.08-9.92,4.08-8.11,0-13.52-5.36-13.52-12.86s5.36-12.81,12.62-12.81,12.43,5.22,12.43,12.96c0,.38-.05.95-.1,1.38Zm-20.41-3.27h16.13c-.47-4.22-3.65-7.21-8.07-7.21s-7.59,2.94-8.07,7.21Z"/><path class="cls-1" d="m134.24,39.85c0,7.31-5.22,12.43-12.05,12.43-4.75,0-8.73-2.56-10.58-6.74v15.8h-1.57V27.51h1.52v6.74c1.85-4.32,5.79-6.93,10.63-6.93,6.83,0,12.05,5.17,12.05,12.53Zm-1.57,0c0-6.55-4.51-11.06-10.53-11.06s-10.54,4.51-10.54,11.06,4.51,11.01,10.54,11.01,10.53-4.46,10.53-11.01Z"/><path class="cls-1" d="m153.07,27.32v1.57h-.43c-5.74,0-9.11,3.84-9.11,10.16v13.1h-1.57v-24.63h1.52v5.93c1.42-3.89,4.75-6.12,9.59-6.12Z"/><path class="cls-1" d="m156.91,39.8c0-7.31,5.17-12.48,12.1-12.48s12.1,5.17,12.1,12.48-5.12,12.48-12.1,12.48-12.1-5.17-12.1-12.48Zm22.64,0c0-6.55-4.51-11.01-10.53-11.01s-10.54,4.46-10.54,11.01,4.51,11.06,10.54,11.06,10.53-4.51,10.53-11.06Z"/><path class="cls-1" d="m200.47,50.58c-1.19,1.14-3.13,1.71-4.94,1.71-4.08,0-6.26-2.47-6.26-6.31v-17.08h-4.65v-1.38h4.65v-5.41h1.57v5.41h8.11v1.38h-8.11v16.85c0,3.32,1.66,5.17,4.84,5.17,1.52,0,2.94-.52,3.99-1.47l.81,1.14Z"/><path class="cls-1" d="m226.81,40.04h-21.59c.09,6.41,4.7,10.82,10.96,10.82,3.23,0,6.26-1.19,8.16-3.65l1,1.04c-2.23,2.66-5.55,4.03-9.16,4.03-7.26,0-12.48-5.17-12.48-12.48s4.94-12.48,11.58-12.48,11.53,5.08,11.53,12.29v.43Zm-21.54-1.28h20.07c-.38-5.79-4.51-10.01-10.06-10.01s-9.68,4.22-10.01,10.01Z"/><path class="cls-1" d="m231.74,39.8c0-7.36,5.17-12.48,12.24-12.48,3.7,0,7.02,1.42,9.11,4.22l-1.19,1c-1.85-2.56-4.75-3.75-7.92-3.75-6.12,0-10.68,4.46-10.68,11.01s4.56,11.06,10.68,11.06c3.18,0,6.07-1.19,7.92-3.75l1.19.95c-2.09,2.8-5.41,4.22-9.11,4.22-7.07,0-12.24-5.13-12.24-12.48Z"/><path class="cls-1" d="m272.45,50.58c-1.19,1.14-3.13,1.71-4.93,1.71-4.08,0-6.26-2.47-6.26-6.31v-17.08h-4.65v-1.38h4.65v-5.41h1.57v5.41h8.11v1.38h-8.11v16.85c0,3.32,1.66,5.17,4.84,5.17,1.52,0,2.94-.52,3.99-1.47l.81,1.14Z"/><path class="cls-1" d="m295.93,82.82h1.46v10.2h-1.46v-10.2Z"/><path class="cls-1" d="m301.97,84.09h-3.5v-1.27h8.44v1.27h-3.5v8.93h-1.44v-8.93Z"/><path class="cls-1" d="m306.81,88.42h3.92v1.21h-3.92v-1.21Z"/><path class="cls-1" d="m311.4,91.86l.54-1.14c.76.69,2.05,1.18,3.37,1.18,1.76,0,2.52-.68,2.52-1.57,0-2.49-6.18-.92-6.18-4.71,0-1.57,1.22-2.92,3.91-2.92,1.19,0,2.43.32,3.28.9l-.48,1.17c-.89-.57-1.89-.83-2.8-.83-1.73,0-2.48.73-2.48,1.62,0,2.49,6.18.93,6.18,4.68,0,1.56-1.25,2.9-3.95,2.9-1.56,0-3.09-.52-3.91-1.28Z"/><path class="cls-1" d="m327.62,89.63h-6.27c.17,1.36,1.27,2.26,2.8,2.26.9,0,1.66-.31,2.23-.93l.77.9c-.7.82-1.76,1.25-3.05,1.25-2.49,0-4.15-1.65-4.15-3.95s1.65-3.93,3.88-3.93,3.82,1.6,3.82,3.98c0,.12-.01.29-.03.42Zm-6.27-1h4.96c-.15-1.3-1.12-2.22-2.48-2.22s-2.33.9-2.48,2.22Z"/><path class="cls-1" d="m328.36,89.16c0-2.3,1.71-3.93,4.08-3.93,1.38,0,2.54.57,3.15,1.65l-1.06.68c-.5-.76-1.25-1.11-2.1-1.11-1.52,0-2.65,1.06-2.65,2.71s1.14,2.72,2.65,2.72c.84,0,1.6-.35,2.1-1.11l1.06.67c-.61,1.08-1.76,1.66-3.15,1.66-2.38,0-4.08-1.65-4.08-3.95Z"/><path class="cls-1" d="m344.09,85.3v7.72h-1.33v-1.17c-.57.8-1.53,1.25-2.62,1.25-2,0-3.32-1.09-3.32-3.37v-4.45h1.4v4.28c0,1.52.76,2.27,2.08,2.27,1.46,0,2.39-.9,2.39-2.56v-3.99h1.4Z"/><path class="cls-1" d="m350.4,85.23v1.36c-.12-.01-.22-.01-.32-.01-1.5,0-2.43.92-2.43,2.61v3.85h-1.4v-7.72h1.34v1.3c.5-.9,1.46-1.37,2.81-1.37Z"/><path class="cls-1" d="m351.36,82.91c0-.51.41-.92.95-.92s.95.39.95.89c0,.53-.39.93-.95.93s-.95-.39-.95-.9Zm.25,2.39h1.4v7.72h-1.4v-7.72Z"/><path class="cls-1" d="m359.51,92.57c-.42.36-1.06.54-1.69.54-1.56,0-2.45-.86-2.45-2.42v-4.24h-1.31v-1.15h1.31v-1.69h1.4v1.69h2.21v1.15h-2.21v4.18c0,.83.44,1.3,1.21,1.3.41,0,.8-.13,1.09-.36l.44,1Z"/><path class="cls-1" d="m367.38,85.3l-3.75,8.5c-.68,1.63-1.57,2.14-2.75,2.14-.74,0-1.5-.25-1.98-.71l.6-1.05c.38.36.86.57,1.38.57.67,0,1.09-.31,1.47-1.2l.25-.54-3.41-7.71h1.46l2.7,6.18,2.67-6.18h1.37Z"/><g id="logo_item--logo_0"><path class="cls-1" d="m315.4,28.05c5.23-1.38,10.37-3.14,15.66-4.27,5.14,1.33,10.3,2.71,15.33,4.36.1,7.42-1.23,15.39-6.17,21.22-2.4,2.92-5.76,4.78-9.16,6.29-4.75-1.71-9.03-4.87-11.55-9.29-3.25-5.52-4.01-12.03-4.11-18.31Zm11.24,7.46c-.36,1.69.95,3.01,1.8,4.3.03,2.03-.1,4.06.15,6.08.34,2.16,3.72,2.39,4.43.36.71-2.56-.63-5.63,1.32-7.8,1.99-2.26.48-6.15-2.4-6.71-2.45-.69-5.13,1.25-5.31,3.76Z"/><path class="cls-1" d="m367.14,27.04c.4-.05,1.2-.13,1.59-.18,4.71-.39,10.02-1.03,14.25,1.53,2.88,2.17.99,6.04-.75,8.33-5.47,7.01-13.11,11.91-20.6,16.51-14.53,8.42-30.19,15.01-46.52,18.99-7.51,1.55-15.39,3.35-23.01,1.49-2.37-.51-4.53-2.78-3.67-5.33,1.55-4.73,5.49-8.13,9.16-11.27-1.44,2.44-3.51,5.84-1.17,8.4,4.02,3.23,9.68,2.25,14.43,1.77,5.26-.86,10.45-2.14,15.52-3.77,6.61-2.13,13.07-4.72,19.32-7.77,1.48-.7,2.95-1.43,4.42-2.18,3.74-1.92,7.35-4.05,10.86-6.36,5.1-3.69,10.96-7.32,13.5-13.36,1.52-3.71-2.37-6.55-5.72-6.53-.4-.07-1.2-.19-1.61-.25Z"/><path class="cls-2" d="m313.99,35.52c-.3-2.95-.45-5.9-.46-8.87,1.97-.56,3.93-1.11,5.88-1.7-3.09-1.81-6.36-3.26-9.43-5.1,5.17-1.44,10.33-2.91,15.49-4.38,2.48-.72,4.99-1.69,7.62-1.23,0,0,20.45,6.08,22.81,6.76-.14,5.53-.51,11.06-1.47,16.51,3.72,1.73,7.3,3.73,10.97,5.57,1.51-5.18,2.58-10.45,3.33-15.78-.4-.06-1.2-.19-1.61-.25.4-.05,1.2-.13,1.59-.18.69-5.35.84-10.75.92-16.14-6.91-1.93-33.19-9.29-36.81-10.52-2.68-.7-5.24.59-7.79,1.24-10.94,3.08-21.87,6.2-32.82,9.26-.01,4.55.22,9.11.54,13.66,7.06,3.76,14.12,7.49,21.21,11.16Z"/><path class="cls-2" d="m316.45,55.85c-4.65-5.1-7.32-11.66-8.92-18.3-4.66-2.38-9.31-4.82-13.97-7.22,2.07,13.59,7.2,27.26,17.29,36.94,5.26-.86,10.45-2.14,15.52-3.77-3.62-2.1-7.15-4.48-9.92-7.65Z"/><path class="cls-2" d="m385.76,30.67c-.88,5.85-5.47,9.99-9.71,13.67-8.91,7.35-19.09,13.03-29.58,17.77v.15c-2.48,1.06-4.97,2.16-7.49,3.14v.15c-3.34,1.22-6.65,2.52-10.03,3.62l.02.13c-9.96,3.05-20.14,6.1-30.65,6.13-3.24-.16-6.88-.27-9.51-2.44-1.47-1.14-1.33-3.21-1.71-4.83-1,2.17-1.77,4.83-.43,7.05,1.69,2.97,5.3,3.75,8.42,4.15,9.2.85,18.26-1.59,27.1-3.78,2.02,1.06,4.08,2.05,6.18,2.97.87.32,1.74.64,2.61.96,2.83-1.07,5.59-2.3,8.29-3.65,2.63-1.44,5.12-3.08,7.53-4.86,3.67-2.65,6.4-6.29,9.63-9.37,7.23-4.09,14.44-8.36,20.8-13.75,3.73-3.22,7.56-6.78,9.21-11.56.71-1.9.29-3.94-.69-5.66Z"/><path class="cls-2" d="m350.11,53.55c3.74-1.92,7.35-4.05,10.86-6.36l.34-.5c-3.63-2.3-7.67-4.03-11.46-6.09-.88-.45-1.75-.91-2.63-1.34-1.03,4.01-2.85,7.75-5.2,11.16,1.84.89,3.66,1.81,5.49,2.74-.61.86-1.23,1.72-1.82,2.58,1.48-.7,2.96-1.43,4.42-2.18Z"/></g></svg>
